<svg xmlns="http://www.w3.org/2000/svg" shape-rendering="geometricPrecision" text-rendering="geometricPrecision" image-rendering="optimizeQuality" fill-rule="evenodd" clip-rule="evenodd" viewBox="0 0 495 512.151"><g fill-rule="nonzero"><path fill="#0A2933" d="M330.758 498.383c-6.96-3.67-13.152-8.567-18.553-14.681-5.545-6.265-10.217-13.703-14.003-22.296-3.682-8.346-6.439-18.298-8.259-29.843-1.758-11.15-2.644-23.534-2.644-37.137 0-11.693.452-23.96 1.342-36.786.859-12.349 2.192-25.292 3.981-38.818l.096-.738a81.703 81.703 0 01-8.315 6.604c-11.185 7.734-23.078 11.602-35.666 11.602-16.938 0-38.687-6.882-51.961-18.019l.83 7.299c.981 9.005 1.728 17.559 2.223 25.631.517 8.445.782 16.087.782 22.904 0 10.252-.652 20.294-1.941 30.112-1.281 9.743-3.205 18.992-5.762 27.719-2.727 9.297-6.513 17.738-11.342 25.306-4.924 7.707-10.881 14.406-17.85 20.09-7.29 5.945-15.887 10.369-25.77 13.265-9.456 2.775-19.986 4.164-31.57 4.164-30.13 1.746-64.883-7.911-83.558-33.138-7.868-9.874-13.678-22.722-17.456-38.522C1.789 408.155 0 390.648 0 370.588c0-6.904.157-15.657.46-26.234.274-9.727.682-19.774 1.203-30.156.573-11.359 1.225-22.27 1.937-32.73a2098.26 2098.26 0 012.57-33.799c1.889-22.244 4.164-44.688 6.826-66.854a1678.12 1678.12 0 013.921-30.342c3.539-25.77 7.259-51.505 17.298-75.76 6.053-14.619 13.578-26.429 22.549-35.396 9.027-9.022 19.33-15.814 30.893-20.347 11.428-4.485 23.938-6.73 37.506-6.73 19.084-1.085 47.376 6.692 63.702 17.347 8.662 4.971 16.908 11.962 24.724 20.963 7.355 8.476 14.355 18.827 20.976 31.028 3.708 6.826 7.182 14.377 10.408 22.653 3.43-11.142 7.13-21.146 11.089-30 9.349-20.889 22.7-43.624 41.862-57.097 8.055-5.658 16.474-9.926 25.236-12.779A88.054 88.054 0 01350.619 0c11.632 0 22.387 1.572 32.248 4.711 6.361 1.186 12.401 2.94 18.115 5.267 11.845 4.828 22.183 12.11 30.989 21.823 8.285 9.136 15.414 19.995 21.363 32.548 5.805 12.253 10.551 26.183 14.216 41.753 2.87 12.131 5.531 25.123 7.976 38.935 2.345 13.265 4.598 28.032 6.739 44.276a1432.935 1432.935 0 015.449 47.388 1533.077 1533.077 0 014.007 48.575 1545.272 1545.272 0 012.415 47.532c.573 16.239.864 31.089.864 44.519 0 23.212-2.215 43.259-6.626 60.115-4.672 17.824-11.884 32.127-21.615 42.882-9.617 10.629-20.902 18.614-33.828 23.937-12.766 5.254-26.93 7.89-42.479 7.89-16.395 0-45.426-5.753-59.694-13.768z"/><path fill="#0A2933" d="M153.256 174.845l-.742-2.727c-.552-.056-1.294-.009-2.262.148-.469.082-.83.178-1.108.295l.348 2.397c.568.616 1.354 1.346 2.292 2.219.6-.873 1.112-1.659 1.472-2.332zM330.584 187.128l.209-1.124-.677-.152-2.124-.386-.178.56c.699.295 1.672.673 2.77 1.102z"/><path fill="#2FBBF4" d="M390.452 497.79c-15.459 0-28.99-2.902-40.581-8.696-11.597-5.803-20.614-15.997-27.056-30.598-6.442-14.6-9.663-35.003-9.663-61.201 0-23.189 1.716-47.772 5.155-73.752 3.432-25.988 7.831-52.506 13.205-79.562 30.967-156.098.632-6.697-30.598 41.875-15.465 24.046-32.858 36.072-52.178 36.072-12.026 0-22.868-4.29-32.531-12.884-9.663-8.587-19.007-24.693-28.023-48.31-13.946-36.531-42.559-173.396-21.581-47.67a4801.892 4801.892 0 019.344 58.301c3.003 19.537 5.475 38.108 7.409 55.719 1.927 17.603 2.894 33.28 2.894 47.022 0 19.757-2.363 37.687-7.082 53.793-4.726 16.098-12.885 28.874-24.483 38.327-11.59 9.445-27.695 14.171-48.309 14.171-27.485 0-47.779-8.267-60.875-24.802-13.102-16.535-19.646-43.911-19.646-82.135 0-15.888.538-34.459 1.607-55.72 1.076-21.253 2.581-43.264 4.508-66.022 1.934-22.767 4.188-44.878 6.769-66.35 2.574-21.472 5.148-40.159 7.729-56.047 6.014-36.072 16.637-61.732 31.885-76.98 15.247-15.24 34.676-22.868 58.3-22.868 15.459 0 30.488 4.189 45.089 12.565 14.6 8.376 28.023 23.835 40.26 46.383 12.238 22.541 22.01 54.861 29.311 96.947h2.573c6.872-43.809 15.786-77.948 26.737-102.429 10.95-24.476 23.296-41.548 37.039-51.211 13.743-9.657 28.561-14.492 44.449-14.492 24.903 0 44.66 8.056 59.26 24.155 14.6 16.105 25.34 38.763 32.211 67.964 5.584 23.617 10.413 50.891 14.492 81.808 4.079 30.917 7.191 62.591 9.343 95.013 2.145 32.422 3.221 62.808 3.221 91.152 0 44.23-8.158 75.366-24.482 93.406-16.316 18.032-38.217 27.056-65.702 27.056z"/><path fill="#fff" d="M90.67 83.858c2.693-3.904 8.046-4.881 11.95-2.189 3.903 2.693 4.88 8.046 2.188 11.949-7.004 10.096-12.969 23.013-17.472 39.148-4.286 15.371-7.26 33.647-8.563 55.153-.278 4.737-4.35 8.358-9.087 8.08-4.738-.278-8.359-4.35-8.081-9.088 1.376-22.73 4.563-42.2 9.17-58.721 5.05-18.093 11.85-32.735 19.895-44.332zM61.974 213.706c-.239-4.737 3.408-8.784 8.146-9.023 4.737-.238 8.783 3.409 9.022 8.146l.256 4.698c.239 4.737-3.408 8.784-8.145 9.023-4.737.239-8.784-3.409-9.023-8.146l-.256-4.698z"/></g></svg>